:version 1.10
:name ASF
:units
  mass 1
  length 1
  angle deg
:documentation
  ASF file generated by Kaydara
:root
  axis xyz
  order  tx ty tz rx ry rz
  position 0 0 0
  orientation 0 0 0
:bonedata
  begin
    id 1
    name RightUpLegDummy
    direction -0.718183 -0.695806 0.00816078
    length 4.904
    axis 0 0 0 xyz
  end
  begin
    id 2
    name RightUpLeg
    direction 3.53373e-006 -0.995788 0.0916898
    length 17.4976
    axis -3.49089 -0.000906625 0.000286804 xyz
    dof rx ry rz
  end
  begin
    id 3
    name RightLeg
    direction 0.00371092 -0.995096 -0.0988419
    length 16.5821
    axis 3.68512 0.0193738 -0.131023 xyz
    dof rx ry rz
  end
  begin
    id 4
    name RightFoot
    direction 0.00079151 -0.46099 0.887405
    length 3.77069
    axis 4.81691e-005 -0.120479 -0.188788 xyz
    dof rx ry rz
  end
  begin
    id 5
    name RightToes
    direction 0 0 0
    length 0
    axis 0 0 0 xyz
    dof rx ry rz
  end
  begin
    id 6
    name SpineDummy
    direction 8.3039e-015 1 4.57515e-016
    length 4.6813
    axis 0 0 0 xyz
  end
  begin
    id 7
    name Spine
    direction -3.15643e-008 0.999988 0.00495137
    length 10.1015
    axis -0.001389 0.000121418 2.40972e-006 xyz
    dof rx ry rz
  end
  begin
    id 8
    name Spine1
    direction 0 0 0
    length 0
    axis -0.001389 0.000121451 1.30017e-006 xyz
    dof rx ry rz
  end
  begin
    id 9
    name HEadDummy
    direction -1.99912e-008 0.999999 0.00127422
    length 3.43865
    axis -0.001389 0.000121451 1.30017e-006 xyz
  end
  begin
    id 10
    name HEad
    direction 0 0 0
    length 0
    axis 0 0 0 xyz
    dof rx ry rz
  end
  begin
    id 11
    name LeftShoulder1Dummy
    direction 0.998891 -0.0402509 -0.0244456
    length 3.5433
    axis -0.001389 0.000121451 1.30017e-006 xyz
  end
  begin
    id 12
    name LeftShoulder1
    direction 0.99951 -0.000327763 0.0313091
    length 4.05031
    axis -0.001389 0.000121451 1.30017e-006 xyz
    dof rx ry rz
  end
  begin
    id 13
    name LeftArm
    direction 0.998561 -0.00100056 -0.0536182
    length 10.3537
    axis -23.1894 0.134784 0.967509 xyz
    dof rx ry rz
  end
  begin
    id 14
    name LeftForeArm
    direction 0.998903 0.00866432 0.046012
    length 8.70632
    axis -9.91835 -0.06569 -0.177794 xyz
    dof rx ry rz
  end
  begin
    id 15
    name LeftHand
    direction 0 0 0
    length 0
    axis 0 0 0 xyz
    dof rx ry rz
  end
  begin
    id 16
    name RightShoulderDummy
    direction -0.998891 -0.0402509 -0.0244414
    length 3.5433
    axis -0.001389 0.000121451 1.30017e-006 xyz
  end
  begin
    id 17
    name RightShoulder
    direction -0.99951 -0.000327807 0.0313133
    length 4.05031
    axis 0.215806 0.000203643 -0.0068026 xyz
    dof rx ry rz
  end
  begin
    id 18
    name RightArm
    direction -0.998573 -0.000999564 -0.053403
    length 10.3947
    axis -23.2009 -0.134239 -0.964101 xyz
    dof rx ry rz
  end
  begin
    id 19
    name RightForeArm
    direction -0.998898 0.00868028 0.0461306
    length 8.68355
    axis -9.92322 0.0658061 0.178868 xyz
    dof rx ry rz
  end
  begin
    id 20
    name RightHand
    direction 0 0 0
    length 0
    axis 0 0 0 xyz
    dof rx ry rz
  end
  begin
    id 21
    name LeftUpLegDummy
    direction 0.718183 -0.695806 0.00816078
    length 4.904
    axis 0 0 0 xyz
  end
  begin
    id 22
    name LeftUpLeg
    direction -6.81752e-006 -0.995793 0.0916337
    length 17.4976
    axis -3.48766 0.00143442 -0.000524262 xyz
    dof rx ry rz
  end
  begin
    id 23
    name LeftLeg
    direction -0.00601358 -0.995091 -0.0987824
    length 16.5821
    axis 3.68178 -0.00654042 -0.000285133 xyz
    dof rx ry rz
  end
  begin
    id 24
    name LeftFoot
    direction -0.00417578 -0.460984 0.887399
    length 3.77069
    axis 1.87233e-006 4.66016e-005 -8.6538e-006 xyz
    dof rx ry rz
  end
  begin
    id 25
    name LeftToes
    direction 0 0 0
    length 0
    axis 0 0 0 xyz
    dof rx ry rz
  end
:hierarchy
  begin
    root RightUpLegDummy SpineDummy LeftUpLegDummy
    RightUpLegDummy RightUpLeg
    RightUpLeg RightLeg
    RightLeg RightFoot
    RightFoot RightToes
    SpineDummy Spine
    Spine Spine1
    Spine1 HEadDummy LeftShoulder1Dummy RightShoulderDummy
    HEadDummy HEad
    LeftShoulder1Dummy LeftShoulder1
    LeftShoulder1 LeftArm
    LeftArm LeftForeArm
    LeftForeArm LeftHand
    RightShoulderDummy RightShoulder
    RightShoulder RightArm
    RightArm RightForeArm
    RightForeArm RightHand
    LeftUpLegDummy LeftUpLeg
    LeftUpLeg LeftLeg
    LeftLeg LeftFoot
    LeftFoot LeftToes
  end

:SAMPLES-PER-SECOND 30
:FULLY-SPECIFIED
:DEGREES
48
root  70.7387 39.3656 2.58545 157.396 -82.6584 -161.066
RightUpLeg  -19.1508 -14.9361 -0.348099
RightLeg  28.4808 -5.14163 -3.25523
RightFoot  -5.86655 -0.346689 6.4133
RightToes  0.000481921 0.542163 -0.142578
Spine  7.90862 -2.55036 -5.12516
Spine1  6.43714 -6.35295 12.6837
HEad  -19.3652 8.89432 7.87238
LeftShoulder1  10.716 -15.5619 -49.0737
LeftArm  9.93308 -15.4137 -39.2622
LeftForeArm  45.1702 -41.8445 -7.09993
LeftHand  -0.25398 0.0180481 5.50724
RightShoulder  4.75653 8.56531 33.4673
RightArm  -11.0349 -22.7235 30.6463
RightForeArm  -6.68814 20.3092 5.24664
RightHand  -0.86617 2.70096 -12.6523
LeftUpLeg  11.6135 7.23091 2.26769
LeftLeg  9.81075 13.5327 -2.73717
LeftFoot  -18.4189 0.0239997 -1.40357
LeftToes  1.06246e-005 4.65868e-005 -8.65514e-006
49
root  70.0184 39.2225 2.3945 156.932 -83.1334 -160.213
RightUpLeg  -19.2415 -15.3919 0.503555
RightLeg  23.9255 -3.55897 -1.94466
RightFoot  -6.14111 -0.355825 6.8952
RightToes  0.000481921 0.542163 -0.142578
Spine  7.98682 -2.61426 -5.84303
Spine1  5.81213 -6.68596 13.9346
HEad  -19.9906 8.07706 8.70133
LeftShoulder1  10.749 -15.705 -48.8565
LeftArm  8.46408 -17.5558 -39.6406
LeftForeArm  44.8731 -41.9859 -7.16154
LeftHand  -0.25398 0.0180481 5.50724
RightShoulder  4.6889 8.57871 32.8658
RightArm  -11.8731 -23.7044 29.7171
RightForeArm  -13.2259 19.7812 5.61603
RightHand  -0.992651 3.17264 -13.6808
LeftUpLeg  12.4441 7.38775 2.70169
LeftLeg  9.894 12.6624 -2.89963
LeftFoot  -19.4067 -0.0173416 -1.88572
LeftToes  1.06246e-005 4.65868e-005 -8.65514e-006
50
root  69.1941 39.0341 2.14902 156.731 -83.7328 -159.8
RightUpLeg  -19.1671 -15.2033 1.04427
RightLeg  21.349 -2.16581 -1.13591
RightFoot  -5.75158 -0.354099 6.4683
RightToes  0.000481921 0.542163 -0.142578
Spine  7.70432 -2.84086 -6.19077
Spine1  5.78189 -7.04634 14.4519
HEad  -20.6266 7.27438 9.07575
LeftShoulder1  10.5388 -15.6106 -48.1306
LeftArm  6.93158 -19.135 -39.8255
LeftForeArm  43.1527 -41.021 -6.97654
LeftHand  -0.25398 0.0180481 5.50724
RightShoulder  4.64668 8.56595 32.5579
RightArm  -13.7843 -24.2999 29.8097
RightForeArm  -20.4355 18.8266 6.03031
RightHand  -1.20331 4.23312 -14.7872
LeftUpLeg  13.662 7.62552 3.24725
LeftLeg  9.9815 11.2711 -3.0725
LeftFoot  -20.7432 -0.137887 -3.18009
LeftToes  1.06246e-005 4.65868e-005 -8.65514e-006
51
root  68.2868 38.8277 1.8503 155.201 -84.4492 -158.133
RightUpLeg  -19.3784 -14.3443 1.46153
RightLeg  21.9646 -2.20772 -1.19946
RightFoot  -5.02571 -0.270424 4.29575
RightToes  0.000481921 0.542163 -0.142578
Spine  6.98355 -3.23195 -5.91872
Spine1  6.23988 -7.41722 14.3152
HEad  -20.0209 6.06677 8.55382
LeftShoulder1  10.2626 -15.3788 -47.4361
LeftArm  5.25108 -19.8797 -39.5534
LeftForeArm  41.141 -39.069 -6.53665
LeftHand  -0.25398 0.0180481 5.50724
RightShoulder  4.70644 8.69678 32.6338
RightArm  -16.514 -24.7785 30.5854
RightForeArm  -27.3429 17.7917 6.36175
RightHand  -1.33561 5.09826 -15.0767
LeftUpLeg  15.0089 8.1877 4.03486
LeftLeg  10.2323 9.42973 -2.97077
LeftFoot  -21.8649 -0.302991 -4.72141
LeftToes  1.06246e-005 4.65868e-005 -8.65514e-006
52
root  67.3126 38.5834 1.49771 150.401 -85.0613 -153.211
RightUpLeg  -19.9686 -13.1447 1.98114
RightLeg  25.3862 -3.46529 -2.02275
RightFoot  -5.01435 -0.108806 1.31071
RightToes  0.000481921 0.542163 -0.142578
Spine  5.98082 -3.54464 -4.74315
Spine1  6.88372 -7.50599 13.486
HEad  -19.3194 4.64402 7.46718
LeftShoulder1  10.0973 -15.0704 -47.4482
LeftArm  4.07691 -19.9668 -38.5632
LeftForeArm  38.0355 -35.9408 -5.87641
LeftHand  -0.25398 0.0180481 5.50724
RightShoulder  4.87753 8.95354 33.2105
RightArm  -19.3951 -25.1178 31.4804
RightForeArm  -33.0264 16.8432 6.50629
RightHand  -1.33317 5.38517 -14.6669
LeftUpLeg  15.8967 9.67196 5.20638
LeftLeg  11.7055 7.01946 -1.99719
LeftFoot  -22.9264 -0.425313 -5.55021
LeftToes  1.06246e-005 4.65868e-005 -8.65514e-006
